<?xml version="1.0" encoding="UTF-8" standalone="no"?>
<!DOCTYPE svg PUBLIC "-//W3C//DTD SVG 1.1//EN" "http://www.w3.org/Graphics/SVG/1.1/DTD/svg11.dtd">
<svg width="100%" height="100%" viewBox="0 0 1000 1000" version="1.1" xmlns="http://www.w3.org/2000/svg" xmlns:xlink="http://www.w3.org/1999/xlink" xml:space="preserve" xmlns:serif="http://www.serif.com/" style="fill-rule:evenodd;clip-rule:evenodd;stroke-linejoin:round;stroke-miterlimit:2;">
    <g id="Layer1" transform="matrix(-1,0,0,1,1004.15,0.0665105)">
        <g transform="matrix(0.51964,-0.854385,1.49951,0.912007,-1014.85,32.9743)">
            <path d="M266.575,765.208L82.62,783.762L71.795,983.023L205.032,936.851L266.575,765.208Z" style="fill:rgb(14,195,155);"/>
        </g>
        <g transform="matrix(1.06437,0,0,1.0405,-462.591,-175.633)">
            <ellipse cx="753.148" cy="743.719" rx="86.766" ry="88.046" style="fill:white;"/>
        </g>
        <g transform="matrix(0.908515,0,0,0.913564,-341.917,-84.9164)">
            <ellipse cx="753.148" cy="743.719" rx="86.766" ry="88.046"/>
        </g>
        <g transform="matrix(0.285146,0,0,0.283149,67.3368,393.331)">
            <ellipse cx="753.148" cy="743.719" rx="86.766" ry="88.046" style="fill:white;"/>
        </g>
        <g transform="matrix(-1.17508,-0.885318,0.404889,-0.537409,324.091,1447.28)">
            <path d="M297.638,743.144L409.345,811.409L138.365,842.553L297.638,743.144Z" style="fill:rgb(20,107,97);"/>
        </g>
        <g transform="matrix(0.659701,0.0797959,-0.0803837,0.66456,197.624,100.352)">
            <path d="M197.22,514.986L60.798,553.508L60.798,819.105L131.089,890.446L197.22,514.986Z" style="fill:rgb(20,107,97);"/>
        </g>
        <g transform="matrix(1.02046,0.246082,-0.283057,1.17378,33.89,224.344)">
            <rect x="251.256" y="141.182" width="131.383" height="82.565" style="fill:rgb(20,107,97);"/>
        </g>
        <g transform="matrix(0.510951,-0.305713,0.513436,0.858128,16.163,356.903)">
            <path d="M430.184,133.781L276.403,133.781L276.403,626.751L422.204,521.009L430.184,133.781Z" style="fill:rgb(20,107,97);"/>
        </g>
        <g transform="matrix(0.539543,-1.20243,0.840017,0.376926,-422.213,362.908)">
            <path d="M137.672,534.396L209.548,736.156L65.795,736.156L137.672,534.396Z" style="fill:rgb(20,107,97);"/>
        </g>
        <g transform="matrix(-0.574407,-0.81857,0.156844,-0.110061,233.086,553.934)">
            <path d="M225.749,434.013L344.869,794.757L106.629,794.757L225.749,434.013Z" style="fill:rgb(20,107,97);"/>
        </g>
        <g transform="matrix(0.866056,-0.701076,1.29927,1.60502,-334.204,256.288)">
            <path d="M318.501,83.255L396.514,257.604L240.488,257.604L318.501,83.255Z" style="fill:rgb(20,107,97);"/>
        </g>
        <g transform="matrix(-6.95704,2.10014,-3.19624,-10.5881,5693.4,5616.94)">
            <path d="M487.69,562.644L506.667,602.324L469.46,602.324L487.69,562.644Z" style="fill:rgb(10,55,53);"/>
        </g>
        <g transform="matrix(6.12323e-17,-1,1,6.12323e-17,-283.543,1248.21)">
            <path d="M530.599,725.607L585.419,785.811L363.878,785.811L530.599,725.607Z" style="fill:rgb(6,11,5);"/>
        </g>
    </g>
    <g id="Layer11" serif:id="Layer1" transform="matrix(1,0,0,1,1.21704,0.1501)">
        <g transform="matrix(0.51964,-0.854385,1.49951,0.912007,-1014.85,32.9743)">
            <path d="M266.575,765.208L82.62,783.762L71.795,983.023L205.032,936.851L266.575,765.208Z" style="fill:rgb(14,195,155);"/>
        </g>
        <g transform="matrix(1.06437,0,0,1.0405,-462.591,-175.633)">
            <ellipse cx="753.148" cy="743.719" rx="86.766" ry="88.046" style="fill:white;"/>
        </g>
        <g transform="matrix(0.908515,0,0,0.913564,-341.917,-84.9164)">
            <ellipse cx="753.148" cy="743.719" rx="86.766" ry="88.046"/>
        </g>
        <g transform="matrix(0.285146,0,0,0.283149,67.3368,393.331)">
            <ellipse cx="753.148" cy="743.719" rx="86.766" ry="88.046" style="fill:white;"/>
        </g>
        <g transform="matrix(-1.17508,-0.885318,0.404889,-0.537409,324.091,1447.28)">
            <path d="M297.638,743.144L409.345,811.409L138.365,842.553L297.638,743.144Z" style="fill:rgb(20,107,97);"/>
        </g>
        <g transform="matrix(0.659701,0.0797959,-0.0803837,0.66456,197.624,100.352)">
            <path d="M197.22,514.986L60.798,553.508L60.798,819.105L131.089,890.446L197.22,514.986Z" style="fill:rgb(20,107,97);"/>
        </g>
        <g transform="matrix(1.02046,0.246082,-0.283057,1.17378,33.89,224.344)">
            <rect x="251.256" y="141.182" width="131.383" height="82.565" style="fill:rgb(20,107,97);"/>
        </g>
        <g transform="matrix(0.510951,-0.305713,0.513436,0.858128,16.163,356.903)">
            <path d="M430.184,133.781L276.403,133.781L276.403,626.751L422.204,521.009L430.184,133.781Z" style="fill:rgb(20,107,97);"/>
        </g>
        <g transform="matrix(0.539543,-1.20243,0.840017,0.376926,-422.213,362.908)">
            <path d="M137.672,534.396L209.548,736.156L65.795,736.156L137.672,534.396Z" style="fill:rgb(20,107,97);"/>
        </g>
        <g transform="matrix(-0.574407,-0.81857,0.156844,-0.110061,233.086,553.934)">
            <path d="M225.749,434.013L344.869,794.757L106.629,794.757L225.749,434.013Z" style="fill:rgb(20,107,97);"/>
        </g>
        <g transform="matrix(0.866056,-0.701076,1.29927,1.60502,-334.204,256.288)">
            <path d="M318.501,83.255L396.514,257.604L240.488,257.604L318.501,83.255Z" style="fill:rgb(20,107,97);"/>
        </g>
        <g transform="matrix(-6.95704,2.10014,-3.19624,-10.5881,5693.4,5616.94)">
            <path d="M487.69,562.644L506.667,602.324L469.46,602.324L487.69,562.644Z" style="fill:rgb(10,55,53);"/>
        </g>
        <g transform="matrix(6.12323e-17,-1,1,6.12323e-17,-283.543,1248.21)">
            <path d="M530.599,725.607L585.419,785.811L363.878,785.811L530.599,725.607Z" style="fill:rgb(6,11,5);"/>
        </g>
    </g>
    <g transform="matrix(0.49677,0,0,1,170.683,-252.094)">
        <rect x="649.832" y="899.681" width="33.943" height="22.973" style="fill:rgb(10,55,53);"/>
    </g>
</svg>
